<svg width="106" height="72" viewBox="0 0 106 72" fill="none" xmlns="http://www.w3.org/2000/svg">
<path d="M74.592 48.764C74.784 47.564 74.88 46.604 74.88 45.884C74.88 45.38 74.832 44.984 74.736 44.696C74.664 44.408 74.568 44.264 74.448 44.264C74.088 44.264 73.668 44.564 73.188 45.164C72.732 45.764 72.336 46.484 72 47.324C71.688 48.14 71.532 48.872 71.532 49.52C71.532 50.336 71.928 51.164 72.72 52.004C73.536 52.82 74.724 53.828 76.284 55.028C77.46 55.892 78.336 56.612 78.912 57.188C79.488 57.74 79.788 58.244 79.812 58.7C79.836 59.708 79.308 60.704 78.228 61.688C77.148 62.648 75.792 63.44 74.16 64.064C72.552 64.688 71.052 65 69.66 65C68.58 65 67.464 64.736 66.312 64.208C65.16 63.656 64.2 63.02 63.432 62.3C62.664 61.556 62.268 60.908 62.244 60.356C62.196 59.3 62.544 58.448 63.288 57.8C64.032 57.128 65.028 56.792 66.276 56.792C66.9 56.792 67.536 56.876 68.184 57.044C68.472 58.628 68.724 59.768 68.94 60.464C70.356 60.104 71.892 59.48 73.548 58.592C68.196 54.536 65.52 51.368 65.52 49.088C65.52 47.984 65.928 46.664 66.744 45.128C67.56 43.568 68.64 42.236 69.984 41.132C71.328 40.004 72.744 39.44 74.232 39.44C75.336 39.44 76.404 39.812 77.436 40.556C78.468 41.3 79.308 42.212 79.956 43.292C80.604 44.372 80.928 45.38 80.928 46.316C80.928 47.228 80.556 47.96 79.812 48.512C79.092 49.04 78.192 49.304 77.112 49.304C76.272 49.304 75.432 49.124 74.592 48.764ZM89.6006 50.852C88.8086 54.476 88.2926 57.428 88.0526 59.708C89.5886 58.964 90.8246 58.196 91.7606 57.404C92.8166 57.764 93.5966 58.268 94.1006 58.916C94.6286 59.54 94.8926 60.26 94.8926 61.076C94.8926 61.652 94.4846 62.252 93.6686 62.876C92.8526 63.476 91.8806 63.98 90.7526 64.388C89.6246 64.796 88.6646 65 87.8726 65C87.1766 65 86.3966 64.796 85.5326 64.388C84.6926 63.956 83.9726 63.464 83.3726 62.912C82.7726 62.336 82.4726 61.844 82.4726 61.436C82.4726 61.1 82.5926 60.38 82.8326 59.276C83.0966 58.148 83.3246 57.188 83.5166 56.396C83.7326 55.58 83.8886 54.98 83.9846 54.596L84.8486 51.14L82.6526 51.284C82.2446 51.092 81.9326 50.792 81.7166 50.384C81.5006 49.976 81.3926 49.508 81.3926 48.98C81.3926 48.02 81.7406 47.204 82.4366 46.532C83.3006 46.58 84.3566 46.628 85.6046 46.676C85.6046 45.14 85.7726 43.448 86.1086 41.6C86.4446 39.728 86.8166 38.792 87.2246 38.792C87.7286 38.792 88.3646 39.008 89.1326 39.44C89.9006 39.872 90.5726 40.376 91.1486 40.952C91.7246 41.528 92.0126 42.032 92.0126 42.464C92.0126 43.016 91.9046 43.58 91.6886 44.156C91.4966 44.708 91.1726 45.476 90.7166 46.46C91.1246 46.412 92.1566 46.244 93.8126 45.956L94.6406 45.812C95.0726 46.052 95.3966 46.4 95.6126 46.856C95.8526 47.312 95.9726 47.804 95.9726 48.332C95.9726 48.764 95.8886 49.184 95.7206 49.592C95.5526 50 95.3006 50.348 94.9646 50.636L89.6006 50.852Z" fill="white"/>
<path d="M5.312 10.352C6.208 10.2667 7.06133 10.288 7.872 10.416C8.896 10.5013 10.0267 10.9493 11.264 11.76C12.672 12.656 13.888 14.0853 14.912 16.048C17.4293 21.296 17.9627 29.9787 16.512 42.096L16.384 43.504C16.4693 43.504 17.5147 42.1387 19.52 39.408C24.896 32.0693 29.7387 24.3253 34.048 16.176C34.4747 15.3227 34.688 14.9173 34.688 14.96C34.7733 14.96 34.7307 14.768 34.56 14.384C34.4747 14.0853 34.4533 13.808 34.496 13.552C34.7093 12.4853 35.584 11.5893 37.12 10.864C37.4613 10.6507 37.824 10.5013 38.208 10.416C38.4213 10.416 38.7413 10.3733 39.168 10.288C39.5947 10.288 39.9147 10.352 40.128 10.48C40.384 10.6507 40.7467 11.44 41.216 12.848C41.2587 12.9333 41.3013 13.04 41.344 13.168C43.776 20.4213 45.5467 28.0587 46.656 36.08C47.168 39.7493 47.488 42.7147 47.616 44.976C47.6587 45.5307 47.7013 45.8293 47.744 45.872C47.7867 45.9147 47.9573 45.744 48.256 45.36C48.3413 45.2747 48.4053 45.1893 48.448 45.104C54.2507 37.7653 58.24 31.536 60.416 26.416C61.7387 23.3013 62.0587 20.9973 61.376 19.504C60.7787 18.4373 59.84 17.84 58.56 17.712C58.0907 17.712 57.7493 17.52 57.536 17.136C57.0667 16.2827 57.1093 15.088 57.664 13.552C58.2613 11.888 59.008 10.8427 59.904 10.416C60.1173 10.3307 60.4587 10.288 60.928 10.288C63.1893 10.416 64.7467 11.7813 65.6 14.384C66.24 16.2613 66.2827 18.6293 65.728 21.488C64.2773 28.912 59.0293 38.384 49.984 49.904C49.6 50.3733 49.216 50.864 48.832 51.376C46.0587 54.832 44.3733 56.7947 43.776 57.264C43.392 57.5627 43.0293 57.712 42.688 57.712C42.4747 57.712 42.304 57.6267 42.176 57.456C41.8347 56.944 41.664 56.0267 41.664 54.704C41.408 44.7627 40.2347 35.3333 38.144 26.416C37.4613 23.4293 36.864 21.2533 36.352 19.888C36.352 19.8027 36.3093 19.8453 36.224 20.016C36.096 20.2293 35.7973 20.7627 35.328 21.616C30.1227 31.3013 24.0427 40.56 17.088 49.392C14.272 53.104 12.16 55.6853 10.752 57.136C10.3253 57.52 9.92 57.712 9.536 57.712C9.32267 57.712 9.13067 57.6267 8.96 57.456C8.61867 57.1147 8.46933 56.5173 8.512 55.664C8.512 55.0667 8.55467 54.64 8.64 54.384C9.23733 51.952 9.83467 48.2187 10.432 43.184C10.816 39.7707 11.0293 36.6773 11.072 33.904C11.1573 27.4613 10.432 22.64 8.896 19.44C7.616 16.88 5.78133 15.4293 3.392 15.088C2.88 15.0027 2.53867 14.96 2.368 14.96C1.856 14.96 1.51467 14.7253 1.344 14.256C1.17333 13.9573 1.19467 13.552 1.408 13.04C1.74933 12.4427 2.19733 11.9307 2.752 11.504C3.60533 10.864 4.45867 10.48 5.312 10.352Z" fill="white"/>
</svg>
